<svg xmlns="http://www.w3.org/2000/svg" width="2048" height="2048" viewBox="0 0 2048 2048" version="1.1"><path d="M 1631.500 672.488 C 1623.130 674.759, 1621.637 675.569, 1610.823 683.710 C 1599.186 692.472, 1595.246 696.489, 1586.500 708.513 C 1583.200 713.049, 1577.320 720.977, 1573.434 726.130 C 1559.439 744.686, 1554.194 752.719, 1547.403 766 C 1531.829 796.457, 1529.616 803.927, 1530.218 824 C 1530.593 836.493, 1530.863 838.067, 1533.846 845.108 C 1539.116 857.549, 1542.116 861.529, 1548.704 864.819 C 1559.288 870.104, 1572.246 874.002, 1579.160 873.980 C 1594.471 873.932, 1610.886 868.744, 1626 859.175 C 1629.575 856.912, 1635.517 853.207, 1639.204 850.943 C 1655.023 841.230, 1683.731 800.085, 1689.885 778.306 C 1690.943 774.563, 1692.779 769.348, 1693.965 766.718 C 1695.151 764.089, 1697.012 757.339, 1698.100 751.718 C 1699.188 746.098, 1700.961 738.640, 1702.039 735.145 C 1703.525 730.330, 1704 725.881, 1704 716.790 C 1704 705.943, 1703.757 704.306, 1701.467 699.748 C 1695.893 688.650, 1688.573 682.477, 1674 676.584 C 1666.859 673.696, 1663.452 672.975, 1652.696 672.073 C 1637.384 670.790, 1637.789 670.782, 1631.500 672.488 M 1113.500 736.990 C 1093.528 737.783, 1088.753 738.310, 1080.352 740.649 C 1077.520 741.438, 1070.995 742.490, 1065.852 742.987 C 1056.148 743.926, 1040.598 746.627, 1028.500 749.475 C 1024.650 750.382, 1018.636 751.766, 1015.135 752.551 C 1011.634 753.335, 1004.977 755.796, 1000.343 758.019 C 995.708 760.241, 989.572 762.950, 986.708 764.039 C 976.293 767.998, 950.023 785.695, 944.430 792.520 C 937.900 800.489, 936.644 808.736, 941.099 814.399 C 944.919 819.255, 949.096 817.901, 959.022 808.586 C 981.084 787.883, 1004.740 777.620, 1043.500 771.934 C 1051.200 770.805, 1061.325 768.808, 1066 767.498 C 1081.508 763.150, 1093.010 762.710, 1184.610 762.960 C 1206.448 763.019, 1214.034 763.379, 1218.610 764.570 C 1230.819 767.749, 1236.991 773.642, 1239.097 784.130 C 1240.061 788.931, 1239.922 790.838, 1238.079 798.095 C 1234.260 813.124, 1231.456 817.338, 1211.049 838.720 C 1200.896 849.357, 1188.853 861.021, 1184.286 864.640 C 1179.720 868.259, 1168.988 878.555, 1160.437 887.519 C 1151.887 896.482, 1143.413 904.830, 1141.605 906.068 C 1139.798 907.306, 1137.239 909.935, 1135.918 911.910 C 1133.433 915.625, 1079.196 970.268, 1073 975.299 C 1071.075 976.862, 1061.004 986.322, 1050.621 996.320 C 1040.237 1006.319, 1030.193 1015.607, 1028.301 1016.959 C 1024.208 1019.885, 1009.785 1037.542, 1006.952 1043.093 C 998.806 1059.061, 1001.249 1076.779, 1013.387 1089.754 C 1020.009 1096.833, 1028.220 1102.024, 1048.500 1111.952 C 1062.230 1118.674, 1073.007 1121.909, 1081.852 1121.966 C 1085.065 1121.986, 1090.797 1123.204, 1096.189 1125.010 C 1104.890 1127.925, 1115.075 1130.054, 1127.500 1131.555 C 1130.800 1131.954, 1135.300 1132.922, 1137.500 1133.706 C 1139.700 1134.491, 1145.485 1135.554, 1150.355 1136.069 C 1155.852 1136.650, 1161.540 1137.995, 1165.355 1139.615 C 1168.735 1141.050, 1175.651 1143.952, 1180.725 1146.064 C 1205.593 1156.414, 1222.575 1167.710, 1240.558 1185.863 C 1249.375 1194.763, 1254.548 1207.310, 1257.518 1227 C 1257.892 1229.475, 1259.010 1234.486, 1260.003 1238.135 C 1260.996 1241.784, 1262.562 1250.784, 1263.482 1258.135 C 1265.698 1275.839, 1266.230 1277.631, 1271.230 1284.250 C 1275.642 1290.089, 1280.859 1294.459, 1289.500 1299.553 C 1296.141 1303.467, 1297.425 1303.972, 1304.741 1305.548 C 1318.963 1308.611, 1338.249 1300.964, 1340.965 1291.186 C 1343.480 1282.129, 1341.557 1268.595, 1336.018 1256.379 C 1332.689 1249.038, 1332.451 1248.024, 1330.536 1233 C 1327.913 1212.415, 1328.996 1101.222, 1331.979 1085 C 1332.737 1080.873, 1332.929 1074.927, 1332.504 1068.713 C 1331.875 1059.515, 1332.625 1049.607, 1335.096 1034.500 C 1336.995 1022.889, 1338.800 995.397, 1338.265 986.251 C 1337.700 976.616, 1338.874 966.715, 1345.090 928.702 C 1346.690 918.914, 1348 908.037, 1348 904.533 C 1348 894.333, 1355.451 858.956, 1359.110 851.785 C 1360.270 849.511, 1363.532 845.367, 1366.359 842.575 C 1375.596 833.456, 1388.243 827.602, 1418.162 818.597 C 1424.597 816.660, 1429.481 814.238, 1437.162 809.173 C 1450.945 800.085, 1455.158 794.589, 1455.376 785.415 C 1455.526 779.057, 1453.362 776.262, 1445.749 772.988 L 1440.696 770.813 1431.598 773.329 C 1426.594 774.713, 1418 776.581, 1412.500 777.480 C 1407 778.380, 1395.525 781.322, 1387 784.019 C 1357.330 793.406, 1336.452 796.710, 1329.675 793.090 C 1328.223 792.315, 1320.615 784.723, 1312.767 776.218 C 1301.928 764.471, 1296.366 759.316, 1289.618 754.763 C 1278.151 747.027, 1274.329 745.415, 1264 743.960 C 1259.325 743.301, 1251.264 741.421, 1246.086 739.782 L 1236.673 736.801 1205.586 736.940 C 1188.489 737.016, 1171.575 737.093, 1168 737.112 C 1164.425 737.130, 1154.975 736.941, 1147 736.690 C 1139.025 736.440, 1123.950 736.575, 1113.500 736.990 M 1265.131 884.485 C 1246.035 888.797, 1221.447 906.737, 1202.749 930 C 1194.246 940.579, 1183.107 952.778, 1171.767 963.929 C 1166.414 969.193, 1159.889 976.518, 1157.267 980.206 C 1154.645 983.894, 1148.431 991.579, 1143.457 997.282 C 1138.483 1002.986, 1130.158 1014.271, 1124.957 1022.361 C 1119.756 1030.450, 1114.150 1039.158, 1112.500 1041.710 C 1109.798 1045.892, 1109.500 1047.153, 1109.500 1054.426 C 1109.500 1061.477, 1109.856 1063.106, 1112.313 1067.286 C 1115.189 1072.179, 1120.789 1076.884, 1129.267 1081.531 C 1131.889 1082.968, 1145.389 1087.726, 1159.267 1092.104 C 1181.980 1099.269, 1185.998 1100.880, 1199.500 1108.234 C 1229.823 1124.749, 1238.619 1128.314, 1249 1128.295 C 1257.829 1128.278, 1264.180 1125.402, 1271.287 1118.199 C 1277.267 1112.140, 1278.938 1108.083, 1280.431 1096 C 1281.523 1087.165, 1283.005 1080.053, 1285.537 1071.500 C 1288.631 1061.044, 1294.676 1030.932, 1295.974 1019.500 C 1296.537 1014.550, 1297.447 1006.788, 1297.998 1002.250 C 1298.549 997.712, 1299.429 990.412, 1299.953 986.028 C 1300.477 981.643, 1301.616 975.680, 1302.485 972.778 C 1305.112 963.993, 1306.203 943.549, 1305.202 921.856 L 1304.296 902.212 1300.815 895.856 C 1298.592 891.797, 1295.827 888.437, 1293.163 886.558 C 1289.431 883.925, 1288.073 883.586, 1280.246 883.331 C 1275.177 883.166, 1268.822 883.651, 1265.131 884.485 M 1390.500 915.310 C 1388.850 916.071, 1386.877 917.858, 1386.116 919.281 C 1384.861 921.627, 1384.977 922.285, 1387.357 926.345 C 1390.425 931.582, 1399.791 940.276, 1409 946.436 C 1415.083 950.506, 1444.699 966, 1446.394 966 C 1446.818 966, 1450.376 967.409, 1454.301 969.132 C 1458.226 970.855, 1466.851 973.512, 1473.469 975.037 C 1480.086 976.562, 1489.100 979.378, 1493.500 981.294 C 1503.814 985.787, 1503.871 985.802, 1514.641 986.913 C 1521.126 987.582, 1525.288 988.619, 1528.965 990.482 C 1531.815 991.926, 1537.917 994.439, 1542.525 996.065 C 1553.498 999.938, 1579.536 1012.972, 1588.895 1019.275 C 1599.464 1026.395, 1623.647 1048.586, 1630.978 1057.893 C 1654.723 1088.040, 1666.137 1108.183, 1677.221 1139.500 C 1686.842 1166.685, 1687.249 1168.174, 1687.178 1176 C 1687.141 1180.125, 1687.790 1188.225, 1688.621 1194 C 1689.568 1200.589, 1690.013 1209.592, 1689.815 1218.171 C 1689.527 1230.685, 1689.674 1232.075, 1691.557 1234.602 C 1695.320 1239.654, 1700.434 1241.505, 1710.500 1241.460 C 1721.591 1241.411, 1727.813 1238.760, 1732.500 1232.089 L 1735.500 1227.819 1735.444 1212.159 C 1735.397 1198.992, 1734.947 1194.431, 1732.620 1183.500 C 1726.998 1157.097, 1726.069 1153.690, 1717.340 1127.460 C 1714.953 1120.288, 1713 1113.815, 1713 1113.076 C 1713 1112.337, 1711.278 1108.305, 1709.174 1104.116 C 1707.070 1099.927, 1704.725 1094.925, 1703.962 1093 C 1701.775 1087.476, 1685.076 1063.178, 1676.027 1052.354 C 1662.247 1035.869, 1642.192 1015.233, 1635.155 1010.298 C 1631.495 1007.731, 1625.791 1003.075, 1622.480 999.953 C 1619.169 996.830, 1614.444 993.252, 1611.980 992.001 C 1609.516 990.750, 1602.325 986.493, 1596 982.541 C 1579.865 972.458, 1572.208 968.308, 1565.453 965.984 C 1562.238 964.878, 1558.683 963.370, 1557.553 962.633 C 1556.424 961.896, 1549.178 958.517, 1541.451 955.123 C 1533.725 951.729, 1525.002 947.336, 1522.068 945.360 C 1516.709 941.751, 1505.984 937.712, 1469 925.373 C 1442.632 916.576, 1434.685 915.051, 1412 914.432 C 1397.513 914.036, 1392.849 914.227, 1390.500 915.310" stroke="none" fill="#040404" fill-rule="evenodd"/><path d="M 772.676 763.534 C 760.119 767.922, 728.322 786.947, 713.161 799.144 C 709.120 802.395, 704.168 805.907, 702.157 806.950 C 700.146 807.992, 695.800 811.168, 692.500 814.008 C 684.687 820.730, 667.823 833.688, 659.818 839.121 C 656.343 841.479, 648.550 848.565, 642.500 854.867 C 630.557 867.308, 616.017 879.870, 609.565 883.324 C 605.946 885.261, 603.965 885.500, 591.500 885.500 C 577.889 885.500, 577.317 885.587, 570.894 888.630 C 562.116 892.789, 546.467 908.506, 541.797 917.854 C 538.938 923.577, 538.548 925.464, 537.866 936.854 C 536.477 960.067, 535.756 962.888, 527.937 975.673 C 522.008 985.369, 511.817 1006.361, 505.954 1020.955 C 502.032 1030.718, 501.684 1032.385, 500.699 1046.123 C 499.694 1060.132, 499.751 1061.206, 501.903 1068.611 C 506.248 1083.564, 510.774 1089.751, 521 1094.715 C 525.916 1097.101, 527.916 1097.430, 539.850 1097.811 C 552.483 1098.215, 553.566 1098.094, 560.016 1095.563 C 565.570 1093.384, 568.768 1091.094, 577.289 1083.195 C 583.041 1077.863, 590.071 1070.687, 592.911 1067.248 C 595.752 1063.810, 599.078 1060.340, 600.303 1059.537 C 601.528 1058.734, 604.071 1055.536, 605.953 1052.430 C 609.238 1047.009, 609.405 1046.253, 610.095 1033.641 C 611.497 1008.019, 621.953 981.100, 638.505 960.500 C 640.273 958.300, 643.635 953.350, 645.976 949.500 C 652.324 939.059, 660.512 928.410, 668.657 920 C 677.695 910.669, 693.679 892.638, 697.541 887.417 C 709.298 871.526, 733.124 847.873, 744.310 840.987 C 754.424 834.761, 758.322 833.668, 768.524 834.200 C 781.287 834.865, 788.089 840.009, 791.598 851.653 C 793.049 856.467, 796.380 883.621, 798.055 904.288 C 798.536 910.222, 799.273 915.622, 799.692 916.288 C 800.596 917.723, 802.336 976.200, 802.094 997 C 802.001 1004.975, 802.330 1019.469, 802.826 1029.208 C 803.491 1042.292, 803.404 1048.821, 802.493 1054.208 C 801.655 1059.161, 801.371 1070.163, 801.608 1088.500 C 802.263 1139.116, 802.017 1186.384, 801.045 1196.951 C 800.511 1202.753, 800.149 1211.100, 800.240 1215.500 C 800.469 1226.545, 798.408 1232.182, 791.737 1238.751 C 782.305 1248.040, 780.965 1248.340, 748 1248.532 C 716.171 1248.717, 709.120 1248.125, 697.521 1244.291 C 689.898 1241.771, 688.110 1241.604, 661.500 1240.930 C 629.072 1240.109, 618.420 1239.144, 600.500 1235.404 C 587.514 1232.693, 587.444 1232.690, 536 1232.307 C 476.455 1231.864, 482.401 1231.851, 430 1232.553 C 407.725 1232.852, 387.250 1233.094, 384.500 1233.093 C 381.750 1233.091, 366.225 1233.054, 350 1233.011 C 332.911 1232.966, 318.186 1233.380, 315 1233.997 C 311.161 1234.739, 305.422 1234.752, 296 1234.039 C 277.346 1232.628, 243.276 1230.986, 232.802 1230.994 C 224.866 1230.999, 222.499 1230.475, 205.802 1225.008 C 183.859 1217.823, 178.538 1217.309, 173.923 1221.923 C 170.486 1225.360, 170.287 1227.683, 172.977 1232.956 C 176.370 1239.605, 182.613 1243.024, 198.913 1247.159 C 210.005 1249.973, 211.396 1250.095, 231.500 1250.005 C 243.050 1249.953, 261.500 1249.873, 272.500 1249.826 C 283.500 1249.779, 308.965 1249.871, 329.089 1250.029 C 349.213 1250.187, 366.094 1250.060, 366.601 1249.746 C 367.109 1249.433, 382.144 1249.610, 400.012 1250.140 C 417.880 1250.671, 445.550 1251.484, 461.500 1251.947 C 483.665 1252.591, 491.796 1253.180, 496 1254.444 C 499.659 1255.545, 506.353 1256.221, 516 1256.464 C 523.975 1256.666, 535.675 1257.311, 542 1257.899 C 548.325 1258.487, 556.916 1258.975, 561.092 1258.984 C 565.541 1258.993, 574.441 1260.200, 582.592 1261.899 C 590.241 1263.493, 600.775 1265.093, 606 1265.454 C 618.055 1266.288, 633.673 1268.545, 637.529 1270.011 C 639.163 1270.633, 649.046 1272.242, 659.490 1273.589 C 669.935 1274.935, 680.735 1276.875, 683.490 1277.899 C 686.246 1278.924, 690.975 1280.087, 694 1280.483 C 697.025 1280.878, 706.735 1283.632, 715.579 1286.601 C 724.422 1289.570, 732.418 1292, 733.347 1292 C 734.277 1292, 739.866 1293.539, 745.768 1295.420 C 751.671 1297.301, 764.150 1300.959, 773.500 1303.548 C 782.850 1306.137, 792.860 1309.441, 795.744 1310.890 C 798.629 1312.339, 805.379 1317.317, 810.744 1321.952 C 824.880 1334.164, 869.191 1379.132, 876.320 1388.500 C 882.592 1396.742, 898.732 1415.344, 909.764 1427.045 C 918.505 1436.316, 923.336 1438.452, 942.269 1441.417 C 957.606 1443.818, 957.667 1443.820, 966.683 1442.011 C 978.686 1439.604, 985.926 1435.927, 992.368 1428.969 C 996.831 1424.149, 998.007 1421.983, 1000.540 1413.919 C 1003.035 1405.981, 1003.476 1403.006, 1003.350 1395 C 1003.018 1373.895, 994.698 1354.685, 981.315 1344.119 C 977.567 1341.159, 973.150 1338.145, 971.500 1337.420 C 969.850 1336.695, 964.225 1334.224, 959 1331.928 C 953.775 1329.632, 942.300 1325.316, 933.500 1322.336 C 918.515 1317.261, 900.856 1309.651, 881.005 1299.710 C 873.189 1295.797, 872.087 1294.858, 867.239 1287.978 C 860.790 1278.825, 855.773 1269.302, 853.555 1261.998 C 850.236 1251.074, 849.257 1194.652, 852.081 1177.071 C 853.384 1168.963, 854.893 1141.422, 856.003 1105.500 C 856.547 1087.900, 857.468 1071.475, 858.049 1069 C 859.205 1064.072, 860.984 1024.027, 861.446 992.500 C 861.607 981.500, 862.248 969.830, 862.870 966.566 C 863.491 963.303, 864.011 957.003, 864.024 952.566 C 864.037 948.130, 864.536 942.700, 865.132 940.500 C 866.132 936.810, 866.646 928.895, 868.769 884.500 C 869.190 875.700, 869.941 867.855, 870.440 867.066 C 871.463 865.446, 872.171 816.238, 871.325 805.500 L 870.774 798.500 863.137 790.958 C 846.126 774.157, 828.183 766.181, 799.038 762.462 C 784.055 760.551, 780.837 760.682, 772.676 763.534" stroke="none" fill="#fc0404" fill-rule="evenodd"/></svg>